[Header]
FileType HTR
DataType HTRS
FileVersion 1
NumSegments 22
NumFrames 4
DataFrameRate 24
EulerRotationOrder ZYX
CalibrationUnits mm
RotationUnits Degrees
GlobalAxisofGravity Y
BoneLengthAxis Y
ScaleFactor 1.0
[SegmentNames&Hierarchy]
reference	GLOBAL
Hips	reference
Spine	Hips
Spine1	Spine
Neck	Spine1
Head	Neck
LeftShoulder	Spine1
LeftArm	LeftShoulder
LeftForeArm	LeftArm
LeftHand	LeftForeArm
RightShoulder	Spine1
RightArm	RightShoulder
RightForeArm	RightArm
RightHand	RightForeArm
LeftUpLeg	Hips
LeftLeg	LeftUpLeg
LeftFoot	LeftLeg
LeftToeBase	LeftFoot
RightUpLeg	Hips
RightLeg	RightUpLeg
RightFoot	RightLeg
RightToeBase	RightFoot
[BasePosition]
reference	0	0	0	0	0	0	1
Hips	0	0	0	0	0	0	1
Spine	0	0	0	0	-0	90	1
Spine1	0	0	0	0	0	0	1
Neck	0	0	0	-7.352327771	-7.352327771	90	1
Head	0	0	0	0	-0	90	1
LeftShoulder	0	0	0	0	0	0	1
LeftArm	0	0	0	0	0	0	1
LeftForeArm	0	0	0	0	0	0	1
LeftHand	0	0	0	0	0	0	1
RightShoulder	0	0	0	0	-0	180	1
RightArm	0	0	0	0	-0	180	1
RightForeArm	0	0	0	0	-0	180	1
RightHand	0	0	0	0	-0	180	1
LeftUpLeg	0	0	0	0	-0	-90	1
LeftLeg	0	0	0	0	-0	-90	1
LeftFoot	0	0	0	66.57146043	-66.57146043	-90	1
LeftToeBase	0	0	0	0	-90	0	1
RightUpLeg	0	0	0	0	-0	-90	1
RightLeg	0	0	0	0	-0	-90	1
RightFoot	0	0	0	66.57146043	-66.57146043	-90	1
RightToeBase	0	0	0	0	-90	0	1
[reference]
60	0	0	0	0	-0	0	1.0
61	0	0	0	0	-0	0	1.0
62	0	0	0	0	-0	0	1.0
63	0	0	0	0	-0	0	1.0
[Hips]
60	-0.5375559926	8.372657776	0.3982498646	367.216217	-100.6724091	-364.3934021	1.0
61	-0.899420023	8.492590904	0.3015599847	367.262146	-99.92262268	-364.7921143	1.0
62	-1.273334026	8.566230774	0.1995890439	366.929718	-99.80620575	-364.8532104	1.0
63	-1.621896148	8.59332943	0.0900311172	364.3155212	-100.1613998	-362.4359131	1.0
[Spine]
60	0	0.7457100153	0	-10.6394186	2.591268063	-91.09213257	1.0
61	0	0.7457100153	0	-10.68769836	2.09750247	-90.81850433	1.0
62	0	0.7457100153	0	-10.72681427	2.168150902	-90.46714783	1.0
63	0	0.7457100153	0	-10.46113014	2.574697495	-89.98918152	1.0
[Spine1]
60	0	2.140589952	0	10.28317451	0.8030388355	1.108107924	1.0
61	0	2.140589952	0	9.731318474	0.653101325	0.8642775416	1.0
62	0	2.140589952	0	8.880840302	0.7176778316	0.3153094053	1.0
63	0	2.140589952	0	7.135467052	0.8615223765	-0.06492105871	1.0
[Neck]
60	0	2.32246995	0	-13.01749039	4.194968224	-93.2678299	1.0
61	0	2.32246995	0	-12.79388142	4.176121235	-93.42076874	1.0
62	0	2.32246995	0	-12.00858784	4.117121696	-93.59777069	1.0
63	0	2.32246995	0	-10.54379272	4.136903763	-93.79580688	1.0
[Head]
60	0	1.409579992	0.1818799973	-2.156270981	-2.751458883	-93.40788269	1.0
61	0	1.409579992	0.1818799973	-1.785028934	-2.839917421	-92.70561218	1.0
62	0	1.409579992	0.1818799973	-1.151188016	-2.992319584	-91.97054291	1.0
63	0	1.409579992	0.1818799973	-1.076200008	-3.080278397	-91.35842896	1.0
[LeftShoulder]
60	0.3668199778	1.946700096	-0.02662999928	-10.79232025	-13.61448097	2.322761297	1.0
61	0.3668199778	1.946700096	-0.02662999928	-10.33203411	-13.78364944	1.861438632	1.0
62	0.3668199778	1.946700096	-0.02662999928	-9.372386932	-13.95820236	1.301819801	1.0
63	0.3668199778	1.946700096	-0.02662999928	-8.518312454	-13.91459656	0.5931784511	1.0
[LeftArm]
60	1.140689969	0	0	14.3507967	30.85256577	-63.43488312	1.0
61	1.140689969	0	0	14.45876026	30.63245201	-64.32453918	1.0
62	1.140689969	0	0	15.02093697	29.83925629	-65.54434967	1.0
63	1.140689969	0	0	15.96554852	28.60210037	-66.80699921	1.0
[LeftForeArm]
60	2.749800205	0	0	-0.6202155352	-0.3401318789	-8.293399811	1.0
61	2.749800205	0	0	-1.528954029	0.008218073286	-8.35823822	1.0
62	2.749800205	0	0	-3.441622972	-0.6959134936	-7.878501415	1.0
63	2.749800205	0	0	-6.047808647	-1.393154025	-7.292730808	1.0
[LeftHand]
60	2.295179844	0	0	-0.4719770849	5.329846859	3.713930368	1.0
61	2.295179844	0	0	-1.342672229	5.22552681	4.067584991	1.0
62	2.295179844	0	0	-3.437268019	4.468928337	1.343261361	1.0
63	2.295179844	0	0	-6.185997009	2.7298913	-2.090247869	1.0
[RightShoulder]
60	-0.3601199985	1.946700096	-0.02662999928	-9.512010574	3.35400629	174.2011261	1.0
61	-0.3601199985	1.946700096	-0.02662999928	-9.151662827	3.48183012	174.4416199	1.0
62	-0.3601199985	1.946700096	-0.02662999928	-9.090694427	3.622419834	174.5271301	1.0
63	-0.3601199985	1.946700096	-0.02662999928	-8.838628769	3.799323082	174.7097168	1.0
[RightArm]
60	-1.140689969	0	0	73.09699249	27.41598511	-99.04998779	1.0
61	-1.140689969	0	0	72.58624268	25.14990616	-98.33000183	1.0
62	-1.140689969	0	0	73.15539551	21.16905594	-97.21491241	1.0
63	-1.140689969	0	0	73.7634201	16.94926453	-96.44721985	1.0
[RightForeArm]
60	-2.749800205	0	0	8.229656219	39.76282501	169.5470276	1.0
61	-2.749800205	0	0	7.82380724	38.70392227	170.2078857	1.0
62	-2.749800205	0	0	5.991407394	36.46200562	169.3751221	1.0
63	-2.749800205	0	0	4.165726185	33.91810608	168.5292053	1.0
[RightHand]
60	-2.295179844	0	0	10.428442	13.18256569	166.311615	1.0
61	-2.295179844	0	0	9.730472565	13.32998657	166.8852997	1.0
62	-2.295179844	0	0	8.096707344	13.27972794	168.2275391	1.0
63	-2.295179844	0	0	6.390516758	13.20206547	169.030304	1.0
[LeftUpLeg]
60	0.9094099998	0	0	14.23898411	1.247483373	86.82844543	1.0
61	0.9094099998	0	0	12.68150234	3.940937996	88.11073303	1.0
62	0.9094099998	0	0	9.567623138	6.351638317	89.7808609	1.0
63	0.9094099998	0	0	4.287790298	6.089007378	91.50740051	1.0
[LeftLeg]
60	0	-4.498080254	0	15.13032913	-11.47516155	84.04178619	1.0
61	0	-4.498080254	0	22.41665268	-6.477070332	85.45094299	1.0
62	0	-4.498080254	0	32.43797684	-3.316877127	85.83561707	1.0
63	0	-4.498080254	0	45.26279449	0.9926113486	86.37547302	1.0
[LeftFoot]
60	0	-3.729400158	0	-88.13264465	109.3793945	-36.7640152	1.0
61	0	-3.729400158	0	-101.0032272	104.3836136	-58.41680145	1.0
62	0	-3.729400158	0	-109.8900833	100.2793274	-77.41395569	1.0
63	0	-3.729400158	0	-112.8082123	99.13014221	-88.92330933	1.0
[LeftToeBase]
60	0	-0.5911099911	1.364109993	0	0	0	1.0
61	0	-0.5911099911	1.364109993	0	0	0	1.0
62	0	-0.5911099911	1.364109993	0	0	0	1.0
63	0	-0.5911099911	1.364109993	0	0	0	1.0
[RightUpLeg]
60	-0.9094099998	0	0	-23.82909393	1.138622284	93.3523407	1.0
61	-0.9094099998	0	0	-21.46562576	1.58116734	93.42845917	1.0
62	-0.9094099998	0	0	-18.00782013	-0.4791029692	93.66981506	1.0
63	-0.9094099998	0	0	-15.82942677	-0.2607774138	94.17985535	1.0
[RightLeg]
60	0	-4.498080254	0	13.00458336	-1.711553454	85.50108337	1.0
61	0	-4.498080254	0	14.58215141	-2.238509893	85.0134201	1.0
62	0	-4.498080254	0	13.62688351	-0.6972286105	86.36873627	1.0
63	0	-4.498080254	0	14.72413063	0.875308156	86.94168091	1.0
[RightFoot]
60	0	-3.729400158	0	66.28108978	74.32213593	90.20422363	1.0
61	0	-3.729400158	0	66.7718811	73.96046448	92.43782806	1.0
62	0	-3.729400158	0	64.71300507	73.08465576	91.56112671	1.0
63	0	-3.729400158	0	57.81179047	72.54698181	87.4833374	1.0
[RightToeBase]
60	0	-0.5911099911	1.364109993	0	0	0	1.0
61	0	-0.5911099911	1.364109993	0	0	0	1.0
62	0	-0.5911099911	1.364109993	0	0	0	1.0
63	0	-0.5911099911	1.364109993	0	0	0	1.0
[EndOfFile]
